<?xml version="1.0" encoding="utf-8"?>
<!-- Generator: Adobe Illustrator 18.1.1, SVG Export Plug-In . SVG Version: 6.00 Build 0)  -->
<svg version="1.1" xmlns="http://www.w3.org/2000/svg" xmlns:xlink="http://www.w3.org/1999/xlink" x="0px" y="0px"
	 viewBox="0 0 100 100" enable-background="new 0 0 100 100" xml:space="preserve">
<g id="Livello_1">
	<path d="M393.4,329.3c-6.3-6.3-14.7-9.8-23.6-9.8c-8.9,0-17.3,3.5-23.6,9.8s-9.8,14.7-9.8,23.6s3.5,17.3,9.8,23.6
		c6.3,6.3,14.7,9.8,23.6,9.8c8.9,0,17.3-3.5,23.6-9.8c6.3-6.3,9.8-14.7,9.8-23.6S399.8,335.6,393.4,329.3z M382.1,360.7l-3.6-4.1
		l6.1-0.5l15,7.5c-0.3,0.8-0.6,1.6-1,2.3L382.1,360.7z M398.6,366.4c-1.3,2.8-3,5.4-5,7.6l-10.7-12.5L398.6,366.4z M383.4,381.6
		c-0.7,0.4-1.5,0.7-2.3,1l-8.1-15.4l0.4-5.4l4.6,3.9L383.4,381.6z M378.9,366.4l12.1,10.2c-2.1,1.9-4.4,3.5-7,4.7L378.9,366.4z
		 M380.6,382.8c-2.8,1-5.9,1.7-9,1.9l1.3-16.4L380.6,382.8z M359.1,382.9c-0.8-0.3-1.6-0.6-2.3-1l5.2-16.7l4.1-3.6l0.5,6.1
		L359.1,382.9z M366.8,368.9l1.3,15.8c-2.9-0.1-5.7-0.7-8.3-1.6L366.8,368.9z M356.3,381.7c-2.8-1.3-5.4-3-7.6-5l12.5-10.7
		L356.3,381.7z M341.1,366.6c-0.4-0.7-0.7-1.5-1-2.3l15.4-8.1l5.4,0.4l-3.9,4.6L341.1,366.6z M356.4,362.1l-10.3,12
		c-1.9-2.1-3.5-4.4-4.7-7L356.4,362.1z M357.5,345.2l3.6,4.1l-6.1,0.5l-15-7.5c0.3-0.8,0.6-1.6,1-2.3L357.5,345.2z M341.1,339.5
		c1.3-2.8,3-5.4,5-7.6l10.7,12.5L341.1,339.5z M356.2,324.3c0.7-0.4,1.5-0.7,2.3-1l8.1,15.4l-0.4,5.4l-4.6-3.9L356.2,324.3z
		 M360.7,339.6l-12-10.3c2.1-1.9,4.4-3.5,7-4.7L360.7,339.6z M359,323.1c2.8-1,5.9-1.7,9-1.9l-1.3,16.4L359,323.1z M380.5,323
		c0.8,0.3,1.6,0.6,2.3,1l-5.2,16.7l-4.1,3.6l-0.5-6.1L380.5,323z M372.9,337l-1.3-15.8c2.9,0.1,5.7,0.7,8.3,1.6L372.9,337z
		 M383.3,324.2c2.8,1.3,5.4,3,7.6,5l-12.5,10.7L383.3,324.2z M398.5,339.3c0.4,0.7,0.7,1.5,1,2.3l-15.4,8.1l-5.4-0.4l3.9-4.6
		L398.5,339.3z M383.2,343.9l10.2-12.1c1.9,2.1,3.5,4.4,4.7,7L383.2,343.9z M401.6,353c0,0.4,0,0.8,0,1.3l-16.7,1.3l-5.4-2.7
		l4.8-2.5l17.4,1.4C401.6,352.1,401.6,352.5,401.6,353z M368.1,359.4l-1.5,1.3l-0.1-1.9C367,359,367.5,359.2,368.1,359.4z M338,353
		c0-0.4,0-0.8,0-1.3l16.7-1.3l5.4,2.7l-4.8,2.5l-17.4-1.4C338,353.8,338,353.4,338,353z M371.5,346.5l1.5-1.3l0.1,1.9
		C372.6,347,372.1,346.7,371.5,346.5z M376.4,352l1.8,0.9l-1.7,0.9c0-0.3,0.1-0.5,0.1-0.8C376.4,352.7,376.4,352.3,376.4,352z
		 M376.7,351.6l1.5-1.7l5,0.4l-4.4,2.3L376.7,351.6z M376.3,351.3c-0.1-0.6-0.4-1.1-0.7-1.6l1.9,0.1L376.3,351.3z M372.3,353
		c0,1.4-1.1,2.5-2.5,2.5c-1.4,0-2.5-1.1-2.5-2.5s1.1-2.5,2.5-2.5C371.2,350.4,372.3,351.6,372.3,353z M366.5,347.3l0.1-1.9l1.5,1.3
		C367.5,346.7,367,347,366.5,347.3z M363.2,353.9l-1.8-0.9l1.7-0.9c0,0.3-0.1,0.5-0.1,0.8C363.2,353.3,363.2,353.6,363.2,353.9z
		 M363.4,351.3l-1.3-1.5l1.9-0.1C363.8,350.1,363.6,350.7,363.4,351.3z M363,351.6l-2.1,1.1l-5-2.4l5.6-0.4L363,351.6z M360.9,353.4
		l2,1l-1.5,1.7l-5-0.4L360.9,353.4z M363.4,354.7c0.1,0.6,0.4,1.1,0.7,1.6l-1.9-0.1L363.4,354.7z M373.1,358.7l-0.1,1.9l-1.5-1.3
		C372.1,359.2,372.6,359,373.1,358.7z M376.3,354.7l1.3,1.5l-1.9,0.1C375.8,355.8,376,355.3,376.3,354.7z M376.6,354.3l2.1-1.1
		l5,2.4l-5.6,0.4L376.6,354.3z M385.1,349.9l14.6-7.7c1,2.8,1.7,5.9,1.9,9L385.1,349.9z M378,349.3l-2.4-0.2l0.7-2.3l5.3-1.8
		L378,349.3z M375.1,348.9c-0.4-0.4-0.8-0.9-1.3-1.3l1.9-0.6L375.1,348.9z M373.7,347.1l-0.1-2.2l3.8-3.2l-1.5,4.7L373.7,347.1z
		 M372.9,344.6l-1.8,1.6l-1.1-2.1l2.4-5L372.9,344.6z M370.6,346.4c-0.3,0-0.5-0.1-0.8-0.1c-0.3,0-0.7,0-1,0.1l0.9-1.8L370.6,346.4z
		 M368.4,346.1l-1.7-1.5l0.4-5l2.3,4.4L368.4,346.1z M366.1,344.8l-0.2,2.4l-2.3-0.7l-1.8-5.3L366.1,344.8z M365.7,347.7
		c-0.4,0.4-0.9,0.8-1.3,1.3l-0.6-1.9L365.7,347.7z M364,349.1l-2.2,0.1l-3.2-3.8l4.7,1.5L364,349.1z M353.9,349.9l-15.8,1.3
		c0.1-2.9,0.7-5.7,1.6-8.3L353.9,349.9z M354.6,356.1l-14.6,7.7c-1-2.8-1.7-5.9-1.9-9L354.6,356.1z M361.7,356.7l2.4,0.2l-0.7,2.3
		l-5.3,1.8L361.7,356.7z M364.6,357c0.4,0.4,0.8,0.9,1.3,1.3l-1.9,0.6L364.6,357z M366,358.8l0.1,2.2l-3.8,3.2l1.5-4.7L366,358.8z
		 M366.7,361.3l1.8-1.6l1.1,2.1l-2.4,5L366.7,361.3z M369,359.6c0.3,0,0.5,0.1,0.8,0.1c0.3,0,0.7,0,1-0.1l-0.9,1.8L369,359.6z
		 M371.2,359.9l1.7,1.5l-0.4,5l-2.3-4.4L371.2,359.9z M373.5,361.1l0.2-2.4l2.3,0.7l1.8,5.3L373.5,361.1z M373.9,358.2
		c0.4-0.4,0.9-0.8,1.3-1.3l0.6,1.9L373.9,358.2z M375.7,356.8l2.2-0.1l3.2,3.8l-4.7-1.5L375.7,356.8z M385.7,356l15.8-1.3
		c-0.1,2.9-0.7,5.7-1.6,8.3L385.7,356z M393.1,331.4l-10.9,12.8l-5.8,1.9l1.6-5.2l13.3-11.3C392,330.2,392.6,330.8,393.1,331.4z
		 M371.1,321.3l1.3,16.7l-2.7,5.4l-2.5-4.8l1.4-17.4c0.4,0,0.8,0,1.3,0C370.3,321.2,370.6,321.2,371.1,321.3z M348.3,329.6
		l12.8,10.9l1.9,5.8l-5.2-1.6l-11.3-13.3C347.1,330.8,347.7,330.2,348.3,329.6z M346.5,374.5l10.9-12.8l5.8-1.9l-1.6,5.2l-13.3,11.3
		C347.7,375.7,347.1,375.1,346.5,374.5z M368.6,384.7l-1.3-16.7l2.7-5.4l2.5,4.8l-1.4,17.4c-0.4,0-0.8,0-1.3,0
		C369.4,384.7,369,384.7,368.6,384.7z M391.4,376.3l-12.8-10.9l-1.9-5.8l5.2,1.6l11.3,13.3C392.6,375.1,392,375.7,391.4,376.3z"/>
	<path fill="#DA8469" d="M84.3,23.2V22H71.5V10.9h3.6V9.7H55.1V1H54v8.8H43.5V1h-1.2v8.8V11v11.1H32V1h-1.2v21h-9.9v1.2h9.9V44H15.9
		v1.2h14.9v11.5h-9.5v1.2h9.4v6.6h1.2V45.2h22v22h1.2V56.6h4.4v2.3h1.2v-2.3h9.8v7.9h1.2v-7.9h10.7v-1.2H71.5V39.2h7.7h1.2h1.9V38
		h-1.9V23.2C80.4,23.2,84.3,23.2,84.3,23.2z M70.3,10.9V22H55.1V10.9H70.3z M43.5,10.9H54V22H43.5V10.9z M32,43.9V23.2h22V44
		L32,43.9L32,43.9z M59.4,43.9h-4.3v-4.8h4.3V43.9z M55.1,55.4V45.1h4.3v10.3H55.1z M70.3,55.4h-9.7V39.2h9.8L70.3,55.4L70.3,55.4z
		 M79.3,38H55.1V23.2h24.1V38z"/>
</g>
<g id="Layer_2">
</g>
<g id="Layer_3">
</g>
<g id="Layer_4">
	<rect x="32" y="23.2" width="22" height="20.8"/>
</g>
<g id="Layer_5">
	<rect x="43.5" y="10.9" fill="#4D5A63" width="10.5" height="11.1"/>
	<rect x="55.1" y="10.9" fill="#4D5A63" width="15.2" height="11.1"/>
	<rect x="55.1" y="23.2" fill="#4D5A63" width="24.1" height="14.8"/>
	<rect x="55.1" y="39.1" fill="#4D5A63" width="4.3" height="4.8"/>
	<rect x="60.6" y="39.2" fill="#4D5A63" width="9.8" height="16.2"/>
	<rect x="55.1" y="45.1" fill="#4D5A63" width="4.3" height="10.3"/>
	<rect x="31.9" y="45.2" fill="#4D5A63" width="22" height="22"/>
	<rect x="71.5" y="10.9" fill="#4D5A63" width="12.8" height="11.1"/>
	<rect x="80.4" y="23.2" fill="#4D5A63" width="4.5" height="14.8"/>
	<rect x="71.5" y="39.2" fill="#4D5A63" width="10.8" height="16.2"/>
	<rect x="55.1" y="56.6" fill="#4D5A63" width="4.4" height="10.6"/>
	<rect x="60.6" y="56.6" fill="#4D5A63" width="9.8" height="10.6"/>
	<rect x="32" y="1" fill="#4D5A63" width="10.4" height="21.1"/>
	<rect x="43.5" y="1" fill="#4D5A63" width="10.4" height="8.8"/>
	<rect x="71.6" y="56.6" fill="#4D5A63" width="10.7" height="7.8"/>
	<rect x="55.1" y="1" fill="#4D5A63" width="19.7" height="8.7"/>
	<rect x="20.8" y="23.2" fill="#4D5A63" width="10" height="20.8"/>
	<rect x="15.9" y="45.2" fill="#4D5A63" width="14.9" height="11.5"/>
	<rect x="20.8" y="1" fill="#4D5A63" width="10" height="21"/>
</g>
</svg>
