<?xml version="1.0" encoding="utf-8"?>
<!-- Generator: Adobe Illustrator 18.1.1, SVG Export Plug-In . SVG Version: 6.00 Build 0)  -->
<svg version="1.1" xmlns="http://www.w3.org/2000/svg" xmlns:xlink="http://www.w3.org/1999/xlink" x="0px" y="0px"
	 viewBox="0 0 400 400" enable-background="new 0 0 400 400" xml:space="preserve">
<g id="Layer_1" display="none">
	
		<image display="inline" overflow="visible" width="495" height="500" xlink:href="../../../Desktop/mood board/composition-with-red-blue-and-yellow-1930.jpg!Blog.jpg"  transform="matrix(0.8081 0 0 0.8081 0 0)">
	</image>
</g>
<g id="Layer_2">
	<polygon points="378,303 378,352 400,352 400,364 378,364 378,400 368,400 368,303 98,303 98,400 87,400 87,303 0,303 0,292 
		87,292 87,137 0,137 0,120 87,120 87,0 98,0 98,292 400,292 400,303 	"/>
	<rect fill="#FF974F" width="87" height="120"/>
	<rect x="98" fill="#FF974F" width="302" height="292"/>
	<rect x="378" y="303" fill="#FF974F" width="22" height="49"/>
	<rect x="378" y="364" fill="#FF974F" width="22" height="36"/>
	<rect x="98" y="303" fill="#FF974F" width="270" height="97"/>
	<rect y="137" fill="#FF974F" width="87" height="155"/>
	<rect y="303" fill="#FF974F" width="87" height="97"/>
</g>
</svg>
